<svg width="40" height="40" viewBox="0 0 40 40" xmlns="http://www.w3.org/2000/svg">
  <rect x="2" y="2" width="36" height="36" rx="8" fill="#2B2D30"/>

  <path d="M12 13C10.5 13 10 14 10 15.5V18C10 19 9 19.5 8.5 20C9 20.5 10 21 10 22V24.5C10 26 10.5 27 12 27"
        stroke="#FFFFFF" stroke-width="1.5" fill="none"
        stroke-linecap="round" stroke-linejoin="round"/>

  <path d="M28 13C29.5 13 30 14 30 15.5V18C30 19 31 19.5 31.5 20C31 20.5 30 21 30 22V24.5C30 26 29.5 27 28 27"
        stroke="#FFFFFF" stroke-width="1.5" fill="none"
        stroke-linecap="round" stroke-linejoin="round"/>

  <g fill="#FFFFFF">
    <path d="M15.5 17h2.5v5c0 .8-.5 1.5-1.2 1.5s-1.1-.6-1.1-1.3h.8c0 .3.1.5.3.5.3 0 .4-.3.4-.7v-4h-1.7V17z"/>
    <path d="M19 17h2.8c.6 0 1 .3 1 .9v.5c0 .6-.3.9-.7 1.3L19.8 22.2h2.2V23H19v-.7l2-2.1c.3-.3.6-.6.6-.9v-.3c0-.3-.3-.5-.6-.5h-1V17z"/>
    <path d="M23.2 17h2.5v5c0 .8-.5 1.5-1.2 1.5s-1.1-.6-1.1-1.3h.8c0 .3.1.5.3.5.3 0 .4-.3.4-.7v-4h-1.7V17z"/>
  </g>
</svg>

